<svg width="101" height="101" viewBox="0 0 101 101" fill="none" xmlns="http://www.w3.org/2000/svg">
<g filter="url(#filter0_b_113_17)">
<path d="M50.5 0C22.6084 0 0 22.6084 0 50.5C0 78.3916 22.6084 101 50.5 101C78.3916 101 101 78.3916 101 50.5C101 22.6084 78.3916 0 50.5 0ZM50.5 82.6767C32.7279 82.6767 18.3233 68.2721 18.3233 50.5C18.3233 32.7279 32.7279 18.3233 50.5 18.3233C68.2721 18.3233 82.6767 32.7279 82.6767 50.5C82.6767 68.2721 68.2721 82.6767 50.5 82.6767Z" fill="#C5EEFC" fill-opacity="0.35"/>
<path d="M1 50.5C1 23.1607 23.1607 1 50.5 1C77.8393 1 100 23.1607 100 50.5C100 77.8393 77.8393 100 50.5 100C23.1607 100 1 77.8393 1 50.5ZM17.3233 50.5C17.3233 68.8244 32.1756 83.6767 50.5 83.6767C68.8244 83.6767 83.6767 68.8244 83.6767 50.5C83.6767 32.1756 68.8244 17.3233 50.5 17.3233C32.1756 17.3233 17.3233 32.1756 17.3233 50.5Z" stroke="url(#paint0_linear_113_17)" stroke-width="2"/>
</g>
<defs>
<filter id="filter0_b_113_17" x="-18" y="-18" width="137" height="137" filterUnits="userSpaceOnUse" color-interpolation-filters="sRGB">
<feFlood flood-opacity="0" result="BackgroundImageFix"/>
<feGaussianBlur in="BackgroundImage" stdDeviation="9"/>
<feComposite in2="SourceAlpha" operator="in" result="effect1_backgroundBlur_113_17"/>
<feBlend mode="normal" in="SourceGraphic" in2="effect1_backgroundBlur_113_17" result="shape"/>
</filter>
<linearGradient id="paint0_linear_113_17" x1="120.079" y1="70.1469" x2="-8.44388" y2="8.91036" gradientUnits="userSpaceOnUse">
<stop offset="0.168195" stop-color="white" stop-opacity="0"/>
<stop offset="0.350977" stop-color="white" stop-opacity="0.6"/>
<stop offset="0.512249" stop-color="white" stop-opacity="0"/>
<stop offset="0.763418" stop-color="white" stop-opacity="0.475559"/>
<stop offset="1" stop-color="white" stop-opacity="0.6"/>
</linearGradient>
</defs>
</svg>
