<svg width="77" height="77" viewBox="0 0 77 77" fill="none" xmlns="http://www.w3.org/2000/svg">
<g filter="url(#filter0_b_113_18)">
<path d="M38.5 0C17.2361 0 0 17.2361 0 38.5C0 59.7639 17.2361 77 38.5 77C59.7639 77 77 59.7639 77 38.5C77 17.2361 59.7639 0 38.5 0ZM38.5 63.0307C24.951 63.0307 13.9693 52.049 13.9693 38.5C13.9693 24.951 24.951 13.9693 38.5 13.9693C52.049 13.9693 63.0307 24.951 63.0307 38.5C63.0307 52.049 52.049 63.0307 38.5 63.0307Z" fill="#FCCFE5" fill-opacity="0.35"/>
<path d="M1 38.5C1 17.7884 17.7884 1 38.5 1C59.2116 1 76 17.7884 76 38.5C76 59.2116 59.2116 76 38.5 76C17.7884 76 1 59.2116 1 38.5ZM12.9693 38.5C12.9693 52.6013 24.3987 64.0307 38.5 64.0307C52.6013 64.0307 64.0307 52.6013 64.0307 38.5C64.0307 24.3987 52.6013 12.9693 38.5 12.9693C24.3987 12.9693 12.9693 24.3987 12.9693 38.5Z" stroke="url(#paint0_linear_113_18)" stroke-width="2"/>
</g>
<defs>
<filter id="filter0_b_113_18" x="-18" y="-18" width="113" height="113" filterUnits="userSpaceOnUse" color-interpolation-filters="sRGB">
<feFlood flood-opacity="0" result="BackgroundImageFix"/>
<feGaussianBlur in="BackgroundImage" stdDeviation="9"/>
<feComposite in2="SourceAlpha" operator="in" result="effect1_backgroundBlur_113_18"/>
<feBlend mode="normal" in="SourceGraphic" in2="effect1_backgroundBlur_113_18" result="shape"/>
</filter>
<linearGradient id="paint0_linear_113_18" x1="91.5453" y1="53.4783" x2="-6.43741" y2="6.79305" gradientUnits="userSpaceOnUse">
<stop offset="0.168195" stop-color="white" stop-opacity="0"/>
<stop offset="0.350977" stop-color="white" stop-opacity="0.6"/>
<stop offset="0.512249" stop-color="white" stop-opacity="0"/>
<stop offset="0.763418" stop-color="white" stop-opacity="0.475559"/>
<stop offset="1" stop-color="white" stop-opacity="0.6"/>
</linearGradient>
</defs>
</svg>
