<svg width="563" height="516" viewBox="0 0 563 516" fill="none" xmlns="http://www.w3.org/2000/svg">
<g filter="url(#filter0_b_113_12)">
<path d="M55.0208 24.9332C57.1234 9.61281 71.2475 -1.10232 86.5679 1.00025L470.202 53.6502C528.747 61.685 569.694 115.659 561.66 174.205L518.187 490.967C516.085 506.287 501.96 517.002 486.64 514.9L24.74 451.509C9.41965 449.406 -1.29551 435.282 0.807062 419.962L55.0208 24.9332Z" fill="#F0FCFF" fill-opacity="0.35"/>
<path d="M86.2959 2.98167L469.93 55.6316C527.381 63.5163 567.563 116.482 559.678 173.933L516.206 490.695C514.253 504.921 501.138 514.871 486.912 512.918L25.0119 449.527C10.7859 447.575 0.836102 434.46 2.78849 420.234L57.0023 25.2051C58.9547 10.9791 72.0699 1.02929 86.2959 2.98167Z" stroke="url(#paint0_linear_113_12)" stroke-width="4"/>
</g>
<defs>
<filter id="filter0_b_113_12" x="-34.4563" y="-34.2632" width="632.122" height="584.426" filterUnits="userSpaceOnUse" color-interpolation-filters="sRGB">
<feFlood flood-opacity="0" result="BackgroundImageFix"/>
<feGaussianBlur in="BackgroundImage" stdDeviation="17.5"/>
<feComposite in2="SourceAlpha" operator="in" result="effect1_backgroundBlur_113_12"/>
<feBlend mode="normal" in="SourceGraphic" in2="effect1_backgroundBlur_113_12" result="shape"/>
</filter>
<linearGradient id="paint0_linear_113_12" x1="631" y1="394.5" x2="56" y2="-31" gradientUnits="userSpaceOnUse">
<stop offset="0.168195" stop-color="white" stop-opacity="0"/>
<stop offset="0.350977" stop-color="white" stop-opacity="0.6"/>
<stop offset="0.512249" stop-color="white" stop-opacity="0"/>
<stop offset="0.763418" stop-color="white" stop-opacity="0.475559"/>
<stop offset="1" stop-color="white" stop-opacity="0.6"/>
</linearGradient>
</defs>
</svg>
