<svg width="1295" height="683" viewBox="0 0 1295 683" fill="none" xmlns="http://www.w3.org/2000/svg">
<line x1="90.35" y1="-1.5299e-08" x2="90.35" y2="683" stroke="#CEDDEA" stroke-opacity="0.7" stroke-width="0.7"/>
<line x1="4.35" y1="-1.5299e-08" x2="4.35003" y2="683" stroke="#CEDDEA" stroke-opacity="0.7" stroke-width="0.7"/>
<line x1="176.35" y1="-1.5299e-08" x2="176.35" y2="683" stroke="#CEDDEA" stroke-opacity="0.7" stroke-width="0.7"/>
<line x1="262.35" y1="-1.5299e-08" x2="262.35" y2="683" stroke="#CEDDEA" stroke-opacity="0.7" stroke-width="0.7"/>
<line x1="348.35" y1="-1.5299e-08" x2="348.35" y2="683" stroke="#CEDDEA" stroke-opacity="0.7" stroke-width="0.7"/>
<line x1="434.35" y1="-1.5299e-08" x2="434.35" y2="683" stroke="#CEDDEA" stroke-opacity="0.7" stroke-width="0.7"/>
<line x1="520.35" y1="-1.5299e-08" x2="520.35" y2="683" stroke="#CEDDEA" stroke-opacity="0.7" stroke-width="0.7"/>
<line x1="606.35" y1="-1.5299e-08" x2="606.35" y2="683" stroke="#CEDDEA" stroke-opacity="0.7" stroke-width="0.7"/>
<line x1="692.35" y1="-1.5299e-08" x2="692.35" y2="683" stroke="#CEDDEA" stroke-opacity="0.7" stroke-width="0.7"/>
<line x1="778.35" y1="-1.5299e-08" x2="778.35" y2="683" stroke="#CEDDEA" stroke-opacity="0.7" stroke-width="0.7"/>
<line x1="864.35" y1="-1.5299e-08" x2="864.35" y2="683" stroke="#CEDDEA" stroke-opacity="0.7" stroke-width="0.7"/>
<line x1="950.35" y1="-1.5299e-08" x2="950.35" y2="683" stroke="#CEDDEA" stroke-opacity="0.7" stroke-width="0.7"/>
<line x1="1036.35" y1="-1.5299e-08" x2="1036.35" y2="683" stroke="#CEDDEA" stroke-opacity="0.7" stroke-width="0.7"/>
<line x1="1122.35" y1="-1.5299e-08" x2="1122.35" y2="683" stroke="#CEDDEA" stroke-opacity="0.7" stroke-width="0.7"/>
<line x1="1208.35" y1="-1.5299e-08" x2="1208.35" y2="683" stroke="#CEDDEA" stroke-opacity="0.7" stroke-width="0.7"/>
<line x1="1294.35" y1="-1.5299e-08" x2="1294.35" y2="683" stroke="#CEDDEA" stroke-opacity="0.7" stroke-width="0.7"/>
<circle cx="4" cy="54" r="4" fill="#CEDDEA" fill-opacity="0.7"/>
<circle cx="90" cy="99" r="4" fill="#CEDDEA" fill-opacity="0.7"/>
<circle cx="176" cy="364" r="4" fill="#CEDDEA" fill-opacity="0.7"/>
<circle cx="262" cy="497" r="4" fill="#CEDDEA" fill-opacity="0.7"/>
<circle cx="348" cy="158" r="4" fill="#CEDDEA" fill-opacity="0.7"/>
<circle cx="520" cy="39" r="4" fill="#CEDDEA" fill-opacity="0.7"/>
<circle cx="692" cy="150" r="4" fill="#CEDDEA" fill-opacity="0.7"/>
<circle cx="1122" cy="183" r="4" fill="#CEDDEA" fill-opacity="0.7"/>
<circle cx="864" cy="76" r="4" fill="#CEDDEA" fill-opacity="0.7"/>
<circle cx="1208" cy="42" r="4" fill="#CEDDEA" fill-opacity="0.7"/>
<circle cx="606" cy="414" r="4" fill="#CEDDEA" fill-opacity="0.7"/>
<circle cx="778" cy="276" r="4" fill="#CEDDEA" fill-opacity="0.7"/>
<circle cx="434" cy="471" r="4" fill="#CEDDEA" fill-opacity="0.7"/>
</svg>
