<svg id="Layer_1" data-name="Layer 1" xmlns="http://www.w3.org/2000/svg" viewBox="0 0 1294.7 683"><defs><style>.cls-1{fill:none;stroke:#ceddea;stroke-opacity:0.7;stroke-width:0.7px;}.cls-2{fill:#ceddea;fill-opacity:0.7;}</style></defs><title>Group 18</title><line class="cls-1" x1="90.35" x2="90.35" y2="683"/><line class="cls-1" x1="4.35" x2="4.35" y2="683"/><line class="cls-1" x1="176.35" x2="176.35" y2="683"/><line class="cls-1" x1="262.35" x2="262.35" y2="683"/><line class="cls-1" x1="348.35" x2="348.35" y2="683"/><line class="cls-1" x1="434.35" x2="434.35" y2="683"/><line class="cls-1" x1="520.35" x2="520.35" y2="683"/><line class="cls-1" x1="606.35" x2="606.35" y2="683"/><line class="cls-1" x1="692.35" x2="692.35" y2="683"/><line class="cls-1" x1="778.35" x2="778.35" y2="683"/><line class="cls-1" x1="864.35" x2="864.35" y2="683"/><line class="cls-1" x1="950.35" x2="950.35" y2="683"/><line class="cls-1" x1="1036.35" x2="1036.35" y2="683"/><line class="cls-1" x1="1122.35" x2="1122.35" y2="683"/><line class="cls-1" x1="1208.35" x2="1208.35" y2="683"/><line class="cls-1" x1="1294.35" x2="1294.35" y2="683"/><circle class="cls-2" cx="4" cy="54" r="4"/><circle class="cls-2" cx="90" cy="146.5" r="4"/><circle class="cls-2" cx="176" cy="395.5" r="4"/><circle class="cls-2" cx="262" cy="559.8" r="4"/><circle class="cls-2" cx="348" cy="205.5" r="4"/><circle class="cls-2" cx="520" cy="86.5" r="4"/><circle class="cls-2" cx="692" cy="197.5" r="4"/><circle class="cls-2" cx="1122" cy="183" r="4"/><circle class="cls-2" cx="864" cy="123.5" r="4"/><circle class="cls-2" cx="1208" cy="42" r="4"/><circle class="cls-2" cx="606" cy="489.99" r="4"/><circle class="cls-2" cx="778" cy="307.5" r="4"/><circle class="cls-2" cx="434" cy="445.5" r="4"/></svg>